<mxfile host="app.diagrams.net" modified="2021-10-28T11:24:41.274Z" agent="5.0 (Windows)" etag="CrygoPZAOoN3P-R1jTNs" version="15.6.1" type="github">
  <diagram id="2-7JCvrZ_DNlj0rMEWUe" name="Page-1">
    <mxGraphModel dx="1483" dy="736" grid="1" gridSize="10" guides="1" tooltips="1" connect="1" arrows="1" fold="1" page="1" pageScale="1" pageWidth="1169" pageHeight="1654" math="0" shadow="0">
      <root>
        <mxCell id="0" />
        <mxCell id="1" parent="0" />
        <mxCell id="yjR7JyXnR5S4nvG7wmXT-1" value="Библиотекарь" style="shape=umlActor;verticalLabelPosition=bottom;verticalAlign=top;html=1;outlineConnect=0;" parent="1" vertex="1">
          <mxGeometry x="100" y="50" width="50" height="100" as="geometry" />
        </mxCell>
        <mxCell id="yjR7JyXnR5S4nvG7wmXT-2" value="Администратор" style="shape=umlActor;verticalLabelPosition=bottom;verticalAlign=top;html=1;outlineConnect=0;" parent="1" vertex="1">
          <mxGeometry x="620" y="280" width="50" height="100" as="geometry" />
        </mxCell>
        <mxCell id="yjR7JyXnR5S4nvG7wmXT-3" value="Гость" style="shape=umlActor;verticalLabelPosition=bottom;verticalAlign=top;html=1;outlineConnect=0;" parent="1" vertex="1">
          <mxGeometry x="100" y="500" width="50" height="100" as="geometry" />
        </mxCell>
        <mxCell id="yjR7JyXnR5S4nvG7wmXT-10" value="Читает книги" style="ellipse;whiteSpace=wrap;html=1;" parent="1" vertex="1">
          <mxGeometry x="585" y="490" width="150" height="50" as="geometry" />
        </mxCell>
        <mxCell id="yjR7JyXnR5S4nvG7wmXT-11" value="Выбирает книгу" style="ellipse;whiteSpace=wrap;html=1;" parent="1" vertex="1">
          <mxGeometry x="585" y="550" width="150" height="50" as="geometry" />
        </mxCell>
        <mxCell id="yjR7JyXnR5S4nvG7wmXT-12" value="Покупает книгу" style="ellipse;whiteSpace=wrap;html=1;" parent="1" vertex="1">
          <mxGeometry x="580" y="620" width="150" height="50" as="geometry" />
        </mxCell>
        <mxCell id="yjR7JyXnR5S4nvG7wmXT-14" value="Принимает новые книги" style="ellipse;whiteSpace=wrap;html=1;" parent="1" vertex="1">
          <mxGeometry x="370" y="270" width="150" height="50" as="geometry" />
        </mxCell>
        <mxCell id="yjR7JyXnR5S4nvG7wmXT-25" style="edgeStyle=orthogonalEdgeStyle;rounded=0;orthogonalLoop=1;jettySize=auto;html=1;exitX=0;exitY=0.5;exitDx=0;exitDy=0;entryX=0;entryY=0.5;entryDx=0;entryDy=0;" parent="1" source="yjR7JyXnR5S4nvG7wmXT-15" target="yjR7JyXnR5S4nvG7wmXT-15" edge="1">
          <mxGeometry relative="1" as="geometry">
            <mxPoint x="370" y="365" as="targetPoint" />
          </mxGeometry>
        </mxCell>
        <mxCell id="yjR7JyXnR5S4nvG7wmXT-15" value="Регистрация" style="ellipse;whiteSpace=wrap;html=1;" parent="1" vertex="1">
          <mxGeometry x="370" y="390" width="150" height="50" as="geometry" />
        </mxCell>
        <mxCell id="yjR7JyXnR5S4nvG7wmXT-16" value="Продает книгу" style="ellipse;whiteSpace=wrap;html=1;" parent="1" vertex="1">
          <mxGeometry x="580" y="70" width="150" height="50" as="geometry" />
        </mxCell>
        <mxCell id="yjR7JyXnR5S4nvG7wmXT-19" value="Группирует книги" style="ellipse;whiteSpace=wrap;html=1;" parent="1" vertex="1">
          <mxGeometry x="580" y="130" width="150" height="50" as="geometry" />
        </mxCell>
        <mxCell id="yjR7JyXnR5S4nvG7wmXT-24" value="" style="endArrow=none;html=1;entryX=0;entryY=0.5;entryDx=0;entryDy=0;exitX=0.5;exitY=0.5;exitDx=0;exitDy=0;exitPerimeter=0;" parent="1" source="yjR7JyXnR5S4nvG7wmXT-1" target="yjR7JyXnR5S4nvG7wmXT-14" edge="1">
          <mxGeometry width="50" height="50" relative="1" as="geometry">
            <mxPoint x="170" y="120" as="sourcePoint" />
            <mxPoint x="370" y="365" as="targetPoint" />
          </mxGeometry>
        </mxCell>
        <mxCell id="yjR7JyXnR5S4nvG7wmXT-26" value="" style="endArrow=none;html=1;exitX=0.5;exitY=0.5;exitDx=0;exitDy=0;exitPerimeter=0;entryX=0;entryY=0.5;entryDx=0;entryDy=0;" parent="1" source="yjR7JyXnR5S4nvG7wmXT-1" target="yjR7JyXnR5S4nvG7wmXT-19" edge="1">
          <mxGeometry width="50" height="50" relative="1" as="geometry">
            <mxPoint x="130" y="100" as="sourcePoint" />
            <mxPoint x="610" y="155" as="targetPoint" />
          </mxGeometry>
        </mxCell>
        <mxCell id="yjR7JyXnR5S4nvG7wmXT-28" value="" style="endArrow=none;html=1;entryX=0;entryY=0.5;entryDx=0;entryDy=0;exitX=0.5;exitY=0.5;exitDx=0;exitDy=0;exitPerimeter=0;" parent="1" source="yjR7JyXnR5S4nvG7wmXT-1" target="yjR7JyXnR5S4nvG7wmXT-16" edge="1">
          <mxGeometry width="50" height="50" relative="1" as="geometry">
            <mxPoint x="170" y="120" as="sourcePoint" />
            <mxPoint x="370" y="365" as="targetPoint" />
          </mxGeometry>
        </mxCell>
        <mxCell id="yjR7JyXnR5S4nvG7wmXT-29" value="" style="endArrow=none;html=1;exitX=1;exitY=0.5;exitDx=0;exitDy=0;entryX=0.5;entryY=0.5;entryDx=0;entryDy=0;entryPerimeter=0;" parent="1" source="yjR7JyXnR5S4nvG7wmXT-15" target="yjR7JyXnR5S4nvG7wmXT-2" edge="1">
          <mxGeometry width="50" height="50" relative="1" as="geometry">
            <mxPoint x="520" y="370" as="sourcePoint" />
            <mxPoint x="750" y="330" as="targetPoint" />
          </mxGeometry>
        </mxCell>
        <mxCell id="yjR7JyXnR5S4nvG7wmXT-30" value="" style="endArrow=none;html=1;exitX=1;exitY=0.5;exitDx=0;exitDy=0;entryX=0.5;entryY=0.5;entryDx=0;entryDy=0;entryPerimeter=0;" parent="1" source="yjR7JyXnR5S4nvG7wmXT-14" target="yjR7JyXnR5S4nvG7wmXT-2" edge="1">
          <mxGeometry width="50" height="50" relative="1" as="geometry">
            <mxPoint x="520" y="360" as="sourcePoint" />
            <mxPoint x="730" y="330" as="targetPoint" />
          </mxGeometry>
        </mxCell>
        <mxCell id="yjR7JyXnR5S4nvG7wmXT-31" value="" style="endArrow=none;html=1;entryX=0;entryY=0.5;entryDx=0;entryDy=0;exitX=0.5;exitY=0.5;exitDx=0;exitDy=0;exitPerimeter=0;" parent="1" source="yjR7JyXnR5S4nvG7wmXT-3" target="yjR7JyXnR5S4nvG7wmXT-10" edge="1">
          <mxGeometry width="50" height="50" relative="1" as="geometry">
            <mxPoint x="160" y="560" as="sourcePoint" />
            <mxPoint x="440" y="370" as="targetPoint" />
          </mxGeometry>
        </mxCell>
        <mxCell id="yjR7JyXnR5S4nvG7wmXT-32" value="" style="endArrow=none;html=1;exitX=0.5;exitY=0.5;exitDx=0;exitDy=0;exitPerimeter=0;" parent="1" source="yjR7JyXnR5S4nvG7wmXT-3" target="yjR7JyXnR5S4nvG7wmXT-11" edge="1">
          <mxGeometry width="50" height="50" relative="1" as="geometry">
            <mxPoint x="159" y="562" as="sourcePoint" />
            <mxPoint x="560" y="510" as="targetPoint" />
          </mxGeometry>
        </mxCell>
        <mxCell id="yjR7JyXnR5S4nvG7wmXT-33" value="" style="endArrow=none;html=1;entryX=0;entryY=0.5;entryDx=0;entryDy=0;exitX=0.5;exitY=0.5;exitDx=0;exitDy=0;exitPerimeter=0;" parent="1" source="yjR7JyXnR5S4nvG7wmXT-3" target="yjR7JyXnR5S4nvG7wmXT-12" edge="1">
          <mxGeometry width="50" height="50" relative="1" as="geometry">
            <mxPoint x="158.95" y="562" as="sourcePoint" />
            <mxPoint x="550" y="640" as="targetPoint" />
          </mxGeometry>
        </mxCell>
        <mxCell id="o6r1-bfZBLl1L3xWKAPL-1" value="По автору" style="ellipse;whiteSpace=wrap;html=1;" parent="1" vertex="1">
          <mxGeometry x="850" y="240" width="150" height="50" as="geometry" />
        </mxCell>
        <mxCell id="o6r1-bfZBLl1L3xWKAPL-2" value="По году" style="ellipse;whiteSpace=wrap;html=1;" parent="1" vertex="1">
          <mxGeometry x="850" y="300" width="150" height="50" as="geometry" />
        </mxCell>
        <mxCell id="o6r1-bfZBLl1L3xWKAPL-3" value="По жанру" style="ellipse;whiteSpace=wrap;html=1;" parent="1" vertex="1">
          <mxGeometry x="850" y="360" width="150" height="50" as="geometry" />
        </mxCell>
        <mxCell id="o6r1-bfZBLl1L3xWKAPL-7" value="" style="html=1;verticalAlign=bottom;labelBackgroundColor=none;endArrow=open;endFill=0;dashed=1;exitX=1;exitY=0.5;exitDx=0;exitDy=0;entryX=0;entryY=0.5;entryDx=0;entryDy=0;" parent="1" source="yjR7JyXnR5S4nvG7wmXT-19" target="o6r1-bfZBLl1L3xWKAPL-1" edge="1">
          <mxGeometry x="-1" y="-440" width="160" relative="1" as="geometry">
            <mxPoint x="820.854205297742" y="210.0011571342171" as="sourcePoint" />
            <mxPoint x="730.0003737233021" y="196.72338783464815" as="targetPoint" />
            <mxPoint x="321" y="221" as="offset" />
          </mxGeometry>
        </mxCell>
        <mxCell id="o6r1-bfZBLl1L3xWKAPL-8" value="" style="html=1;verticalAlign=bottom;labelBackgroundColor=none;endArrow=open;endFill=0;dashed=1;exitX=1;exitY=0.5;exitDx=0;exitDy=0;entryX=0;entryY=0.5;entryDx=0;entryDy=0;" parent="1" source="yjR7JyXnR5S4nvG7wmXT-19" target="o6r1-bfZBLl1L3xWKAPL-2" edge="1">
          <mxGeometry x="-1" y="-440" width="160" relative="1" as="geometry">
            <mxPoint x="740" y="165" as="sourcePoint" />
            <mxPoint x="880" y="125" as="targetPoint" />
            <mxPoint x="321" y="221" as="offset" />
          </mxGeometry>
        </mxCell>
        <mxCell id="o6r1-bfZBLl1L3xWKAPL-10" value="Узнает ФИО" style="ellipse;whiteSpace=wrap;html=1;" parent="1" vertex="1">
          <mxGeometry x="110" y="350" width="150" height="50" as="geometry" />
        </mxCell>
        <mxCell id="o6r1-bfZBLl1L3xWKAPL-11" value="Узнает дату рождения" style="ellipse;whiteSpace=wrap;html=1;" parent="1" vertex="1">
          <mxGeometry x="110" y="410" width="150" height="50" as="geometry" />
        </mxCell>
        <mxCell id="o6r1-bfZBLl1L3xWKAPL-13" value="" style="html=1;verticalAlign=bottom;labelBackgroundColor=none;endArrow=open;endFill=0;dashed=1;exitX=1;exitY=0.5;exitDx=0;exitDy=0;entryX=0;entryY=0.5;entryDx=0;entryDy=0;" parent="1" source="yjR7JyXnR5S4nvG7wmXT-19" target="o6r1-bfZBLl1L3xWKAPL-3" edge="1">
          <mxGeometry x="-1" y="-440" width="160" relative="1" as="geometry">
            <mxPoint x="740" y="165" as="sourcePoint" />
            <mxPoint x="880" y="245" as="targetPoint" />
            <mxPoint x="321" y="221" as="offset" />
          </mxGeometry>
        </mxCell>
        <mxCell id="o6r1-bfZBLl1L3xWKAPL-14" value="" style="html=1;verticalAlign=bottom;labelBackgroundColor=none;endArrow=open;endFill=0;dashed=1;exitX=0;exitY=0.5;exitDx=0;exitDy=0;entryX=1;entryY=0.5;entryDx=0;entryDy=0;" parent="1" source="yjR7JyXnR5S4nvG7wmXT-15" target="o6r1-bfZBLl1L3xWKAPL-10" edge="1">
          <mxGeometry x="-1" y="-440" width="160" relative="1" as="geometry">
            <mxPoint x="750" y="175" as="sourcePoint" />
            <mxPoint x="890" y="255" as="targetPoint" />
            <mxPoint x="321" y="221" as="offset" />
          </mxGeometry>
        </mxCell>
        <mxCell id="o6r1-bfZBLl1L3xWKAPL-15" value="" style="html=1;verticalAlign=bottom;labelBackgroundColor=none;endArrow=open;endFill=0;dashed=1;exitX=0;exitY=0.5;exitDx=0;exitDy=0;entryX=1;entryY=0.5;entryDx=0;entryDy=0;" parent="1" source="yjR7JyXnR5S4nvG7wmXT-15" target="o6r1-bfZBLl1L3xWKAPL-11" edge="1">
          <mxGeometry x="-1" y="-440" width="160" relative="1" as="geometry">
            <mxPoint x="380" y="365" as="sourcePoint" />
            <mxPoint x="270" y="305" as="targetPoint" />
            <mxPoint x="321" y="221" as="offset" />
          </mxGeometry>
        </mxCell>
        <mxCell id="O_U2k7EuNwbKpvMOjo4T-1" value="Аудикнига" style="ellipse;whiteSpace=wrap;html=1;" parent="1" vertex="1">
          <mxGeometry x="850" y="420" width="150" height="50" as="geometry" />
        </mxCell>
        <mxCell id="O_U2k7EuNwbKpvMOjo4T-2" value="" style="html=1;verticalAlign=bottom;labelBackgroundColor=none;endArrow=open;endFill=0;dashed=1;exitX=1;exitY=0.5;exitDx=0;exitDy=0;entryX=0;entryY=0.5;entryDx=0;entryDy=0;" parent="1" source="yjR7JyXnR5S4nvG7wmXT-19" target="O_U2k7EuNwbKpvMOjo4T-1" edge="1">
          <mxGeometry x="-1" y="-440" width="160" relative="1" as="geometry">
            <mxPoint x="740" y="165" as="sourcePoint" />
            <mxPoint x="880" y="205" as="targetPoint" />
            <mxPoint x="321" y="221" as="offset" />
          </mxGeometry>
        </mxCell>
        <mxCell id="O_U2k7EuNwbKpvMOjo4T-4" value="" style="html=1;verticalAlign=bottom;labelBackgroundColor=none;endArrow=open;endFill=0;dashed=1;exitX=1;exitY=0.5;exitDx=0;exitDy=0;entryX=0;entryY=0.5;entryDx=0;entryDy=0;" parent="1" source="yjR7JyXnR5S4nvG7wmXT-11" target="O_U2k7EuNwbKpvMOjo4T-1" edge="1">
          <mxGeometry x="-1" y="-440" width="160" relative="1" as="geometry">
            <mxPoint x="840" y="537" as="sourcePoint" />
            <mxPoint x="960" y="827" as="targetPoint" />
            <mxPoint x="321" y="221" as="offset" />
          </mxGeometry>
        </mxCell>
        <mxCell id="O_U2k7EuNwbKpvMOjo4T-5" value="" style="html=1;verticalAlign=bottom;labelBackgroundColor=none;endArrow=open;endFill=0;dashed=1;exitX=1;exitY=0.5;exitDx=0;exitDy=0;entryX=0;entryY=0.5;entryDx=0;entryDy=0;" parent="1" source="yjR7JyXnR5S4nvG7wmXT-11" target="o6r1-bfZBLl1L3xWKAPL-3" edge="1">
          <mxGeometry x="-1" y="-440" width="160" relative="1" as="geometry">
            <mxPoint x="745" y="585" as="sourcePoint" />
            <mxPoint x="860" y="455" as="targetPoint" />
            <mxPoint x="321" y="221" as="offset" />
          </mxGeometry>
        </mxCell>
        <mxCell id="O_U2k7EuNwbKpvMOjo4T-6" value="" style="html=1;verticalAlign=bottom;labelBackgroundColor=none;endArrow=open;endFill=0;dashed=1;exitX=1;exitY=0.5;exitDx=0;exitDy=0;entryX=0;entryY=0.5;entryDx=0;entryDy=0;" parent="1" source="yjR7JyXnR5S4nvG7wmXT-11" target="o6r1-bfZBLl1L3xWKAPL-2" edge="1">
          <mxGeometry x="-1" y="-440" width="160" relative="1" as="geometry">
            <mxPoint x="755" y="595" as="sourcePoint" />
            <mxPoint x="870" y="465" as="targetPoint" />
            <mxPoint x="321" y="221" as="offset" />
          </mxGeometry>
        </mxCell>
        <mxCell id="O_U2k7EuNwbKpvMOjo4T-7" value="" style="html=1;verticalAlign=bottom;labelBackgroundColor=none;endArrow=open;endFill=0;dashed=1;exitX=1;exitY=0.5;exitDx=0;exitDy=0;entryX=0;entryY=0.5;entryDx=0;entryDy=0;" parent="1" source="yjR7JyXnR5S4nvG7wmXT-11" target="o6r1-bfZBLl1L3xWKAPL-1" edge="1">
          <mxGeometry x="-1" y="-440" width="160" relative="1" as="geometry">
            <mxPoint x="765" y="605" as="sourcePoint" />
            <mxPoint x="880" y="475" as="targetPoint" />
            <mxPoint x="321" y="221" as="offset" />
          </mxGeometry>
        </mxCell>
        <mxCell id="4ORIYbBCYbOh4EK-Z28P-8" value="" style="endArrow=none;html=1;entryX=0;entryY=0.5;entryDx=0;entryDy=0;exitX=0.5;exitY=0.5;exitDx=0;exitDy=0;exitPerimeter=0;" parent="1" source="yjR7JyXnR5S4nvG7wmXT-3" target="yjR7JyXnR5S4nvG7wmXT-15" edge="1">
          <mxGeometry width="50" height="50" relative="1" as="geometry">
            <mxPoint x="135" y="560" as="sourcePoint" />
            <mxPoint x="380" y="365" as="targetPoint" />
          </mxGeometry>
        </mxCell>
      </root>
    </mxGraphModel>
  </diagram>
</mxfile>
